# xmcd
#
# Track frame offsets:
#	150
#	8094
#	17250
#	25765
#	40869
#	54618
#	79919
#	97882
#	113591
#	128187
#	138941
#	150437
#	161537
#	167619
#	171969
#	196531
#	207811
#	211342
#	232268
#	247410
#	262150
#	277224
#	285658
#	297148
#
# Disc length: 4268 seconds
#
# Revision: 0
# Processed by: cddbd v1.5.2PL0 Copyright (c) Steve Scherf et al.
# Submitted via: EasyCDDAExtractor 16.0.8.2
#
DISCID=4c10aa18
DTITLE=Στανίτσας Θρασύβουλος - Αρχείο ζωντ. ηχογραφήσεων 1-Θ. Στανίτσας
DYEAR=2007
DGENRE=Βυζ. Εκκλησιαστική
TTITLE0=Ελέησόν με ο Θεός-Πλήθη των πεπραγμένων[1958, πλ.β']
TTITLE1=Ιδού ο Νυμφύος [1958, σύντομο, πλ. δ']
TTITLE2=Τα πάθη τα σεπτά [1958, αργόν, α']
TTITLE3=Των παθών του Κυρίου [1958, αργόν, πλ. δ']
TTITLE4=Ερχόμενος ο Κύριος [1958, α']
TTITLE5=Ουκ έστιν η βασιλεία του Θεού [1958, α']
TTITLE6=Ω πόσων αγαθών [1958, β']
TTITLE7=Μαρία ο Κύριος μετά Σού [1958, Π. Μπερεκέτη, γ']
TTITLE8=Κύριε εκέκραξα-Πεντηκοστήν εορτάζομεν [1958, α']
TTITLE9=Εις πολλά έτη [1963, εισόδου]
TTITLE10=Θαλάσσης το ερυθραίον [1963, δ' λέγετος]
TTITLE11=Πάσα πνοή και στιχηρά αναστάσιμα [1963, δ' λέγετος]
TTITLE12=Άγιος ο Θεός [1963, β']
TTITLE13=Κατευθυνθήτω [1963, ακολ. προηγ. δώρων, πλ. α']
TTITLE14=Νυν αι δυνάμεις [1963, πλ. β']
TTITLE15=Άγιος, Άγιος, Άγιος [1963, λειτ. Μ. Βασιλείου, β']
TTITLE16=Αμήν [1963, λειτ. Μ. Βασιλείου, β']
TTITLE17=Την γαρ Σην μήτραν [1963, α' 4φωνος]
TTITLE18=Θεοτόκε η ελπίς-Εν νόμω σκιά [1963, αργή, γ']
TTITLE19=Δύναμις Τρισαγίου ύμνου [1963, Θρ. Στανίτσα, δ' φθορ.]
TTITLE20=Άξιόν εστιν [1963, Θρ. Στανίτσα, δευτερόπρωτος]
TTITLE21=Χαίρε Νύμφη... Αλληλούϊα [1963, Θρ. Στανίτσα, α']
TTITLE22=Πολυχρόνιον Πατρ. Αθηναγόρου [1963, βαρύς εναρμ.]
TTITLE23=Εκάθισεν Αδάμ [1963, πλ. β']
EXTD=
EXTT0=
EXTT1=
EXTT2=
EXTT3=
EXTT4=
EXTT5=
EXTT6=
EXTT7=
EXTT8=
EXTT9=
EXTT10=
EXTT11=
EXTT12=
EXTT13=
EXTT14=
EXTT15=
EXTT16=
EXTT17=
EXTT18=
EXTT19=
EXTT20=
EXTT21=
EXTT22=
EXTT23=
PLAYORDER=
